<svg width="18" height="18" viewBox="0 0 18 18" fill="none" xmlns="http://www.w3.org/2000/svg">
<path d="M9.34817 2.28642C9.34817 2.95411 9.38751 3.62557 9.32553 4.28787C9.31961 4.34931 9.29158 4.40858 9.25063 4.46678C9.05555 4.74432 8.62659 4.72545 8.48432 4.41721C8.466 4.37787 8.45522 4.33799 8.45414 4.29811C8.4175 2.99021 8.41426 1.68016 8.45684 0.372805C8.45899 0.305982 8.49294 0.240776 8.54306 0.17557C8.73922 -0.0777104 9.138 -0.054538 9.28565 0.229459C9.30883 0.273649 9.32392 0.318916 9.32769 0.364722C9.38158 1.00116 9.34817 1.64513 9.34817 2.28642Z" fill="#FF6600"/>
<path d="M6.6949 5.13145C6.76334 5.25162 6.75095 5.40143 6.6782 5.51837C6.63239 5.5922 6.58227 5.65902 6.51815 5.67681C6.36294 5.72046 6.1129 5.70752 6.00943 5.60891C5.14396 4.77739 4.29305 3.92917 3.46639 3.05886C3.36885 2.95647 3.36723 2.62074 3.45992 2.51835C3.55854 2.41003 3.91097 2.35668 3.99935 2.44075C4.90685 3.30459 5.78417 4.20024 6.66526 5.09103C6.67658 5.10288 6.68628 5.11636 6.6949 5.13145Z" fill="#FF6600"/>
<path d="M14.3157 2.48506C14.4396 2.62841 14.4558 2.83426 14.3572 2.99593C14.3098 3.07353 14.2602 3.14574 14.2004 3.20718C13.4529 3.96864 12.7114 4.7371 11.9273 5.45868C11.8971 5.48616 11.8616 5.50772 11.8217 5.52496C11.4676 5.67801 11.0893 5.32342 11.2478 4.97152C11.2612 4.9408 11.2785 4.91386 11.3 4.89015C12.041 4.08719 12.8235 3.32196 13.614 2.56697C13.745 2.44195 13.9897 2.38159 14.1772 2.39021C14.2246 2.39291 14.2693 2.43117 14.3157 2.48506Z" fill="#FF6600"/>
<path d="M17.4097 8.68991C17.3008 8.55842 17.2082 8.44902 17.1106 8.34124C16.8999 8.1079 16.6941 7.85893 16.4952 7.61804C15.813 6.79192 15.1081 5.93723 14.0233 5.49803C14.0104 5.49318 14.0001 5.48726 13.9893 5.48079L13.9392 5.44846L13.8816 5.46355C13.6536 5.5239 13.5162 5.62036 13.4618 5.75778C13.4154 5.87472 13.4364 6.00513 13.5237 6.14525L13.541 6.17327L13.569 6.18998C13.7441 6.29398 13.9225 6.39691 14.1111 6.50577C14.1424 6.52355 14.1736 6.54187 14.2054 6.5602L9.13013 9.52896L9.11773 9.53705C8.89248 9.70518 8.70818 9.65129 8.42633 9.48531C7.33669 8.84241 6.22226 8.20059 5.14447 7.58032C4.6045 7.26938 4.06452 6.95844 3.52563 6.64642C3.50192 6.63241 3.47605 6.62001 3.45018 6.60762C3.42324 6.59415 3.39953 6.58283 3.37959 6.57043C3.42108 6.54672 3.46312 6.52301 3.50461 6.49876C3.71155 6.38074 3.92495 6.25895 4.13189 6.13177L4.21757 6.07896L4.1917 5.98196C4.12272 5.72383 3.96106 5.54276 3.72448 5.45708L3.64365 5.42798L3.58329 5.48887C3.56012 5.51205 3.51701 5.53953 3.46258 5.57348C3.32624 5.6597 3.1775 5.73676 3.03362 5.81167C2.7119 5.97873 2.3794 6.15117 2.12289 6.44541C1.50693 7.1519 0.890435 7.87833 0.294418 8.58105L0.236756 8.64895C0.0696988 8.84565 -0.0219132 8.98953 0.0044926 9.1415C0.0341318 9.31179 0.204422 9.42226 0.407586 9.5392C0.550393 9.62165 0.6932 9.70464 0.835468 9.78763C1.20946 10.0053 1.59693 10.2306 1.98331 10.4424C2.11588 10.5151 2.15414 10.5803 2.15253 10.7323C2.14768 11.1613 2.14875 11.5967 2.14929 12.0176C2.15037 12.5236 2.15091 13.0469 2.14283 13.561C2.13744 13.8719 2.25492 14.0724 2.5346 14.2324C4.25583 15.217 6.2977 16.3891 8.39346 17.6124C8.53627 17.6959 8.66938 17.7374 8.80302 17.7374C8.94206 17.7374 9.08217 17.6921 9.23414 17.6016C9.73261 17.3047 10.2451 17.011 10.7403 16.7275C11.0518 16.5491 11.3628 16.3708 11.6726 16.1908C12.2525 15.8534 12.8399 15.508 13.4079 15.1739C13.6606 15.0251 13.9134 14.8764 14.1634 14.7298C14.2518 14.6808 14.3391 14.6301 14.4269 14.5795C14.6209 14.4674 14.8214 14.351 15.0246 14.2567C15.4066 14.0794 15.4546 13.7862 15.4503 13.5227C15.4427 13.0248 15.4444 12.5177 15.4454 12.0278C15.4465 11.6134 15.4476 11.185 15.4433 10.763C15.4417 10.596 15.4842 10.5216 15.626 10.444C15.9865 10.2473 16.3459 10.0366 16.6935 9.8329C16.8854 9.72027 17.0772 9.60818 17.2707 9.49717C17.414 9.41526 17.5644 9.30856 17.594 9.14312C17.6247 8.97606 17.518 8.82032 17.4097 8.68991ZM9.20234 11.2744C9.27078 11.3542 9.33922 11.434 9.40766 11.5132C9.68573 11.837 9.95895 12.1555 10.2343 12.4729C10.2968 12.5452 10.3518 12.6098 10.4003 12.6675C10.8293 13.1746 10.8993 13.1859 11.4738 12.8453C11.5363 12.8081 11.6058 12.7666 11.685 12.7214C11.7626 12.6766 11.8392 12.6287 11.913 12.5818L12.0132 12.5193C12.2422 12.3883 12.4718 12.2574 12.7008 12.127C13.3114 11.7788 13.943 11.4189 14.5606 11.0573C14.5956 11.0368 14.6215 11.0233 14.6403 11.0142C14.6419 11.0341 14.643 11.0621 14.6425 11.0998C14.6312 11.8047 14.6322 12.5355 14.6446 13.333C14.6473 13.4931 14.6085 13.5647 14.4857 13.6283C14.3235 13.7124 14.1672 13.8078 14.0157 13.901C13.9505 13.9409 13.8859 13.9808 13.8223 14.0185L9.38287 16.5702C9.31874 16.6068 9.25354 16.6445 9.20504 16.6693C9.2018 16.6133 9.20234 16.5335 9.20234 16.4548V15.6627C9.20234 14.2502 9.20288 12.7904 9.20557 11.3537C9.20557 11.3278 9.20396 11.3014 9.20234 11.2744ZM11.0351 12.0537C10.9354 12.0327 10.8153 11.8915 10.5959 11.6333C10.5005 11.5213 10.4068 11.4086 10.3125 11.296C10.0662 11.0018 9.81183 10.6973 9.544 10.4117C9.44215 10.3028 9.44646 10.2678 9.44646 10.2672C9.44646 10.2672 9.45401 10.2403 9.53538 10.1929L9.64154 10.1347V10.1336L9.65286 10.1271C11.241 9.23581 12.883 8.3143 14.4614 7.34267L14.4668 7.33944C14.476 7.33351 14.4857 7.32812 14.4948 7.32165C14.6926 7.19016 14.8354 7.09478 14.9022 7.10502C14.9701 7.11526 15.0849 7.24998 15.2444 7.4359C15.5656 7.81097 15.8873 8.1855 16.2171 8.56919L16.5475 8.95396L11.5886 11.8467C11.2954 11.9944 11.1337 12.0747 11.0351 12.0537ZM2.56963 7.17885C2.64885 7.08454 2.65531 7.08831 2.73938 7.13735C4.19494 7.98395 5.62193 8.80738 7.13353 9.67985L8.16389 10.2748C8.04911 10.4095 7.93486 10.5426 7.82116 10.6752C7.40728 11.1586 7.01659 11.615 6.62212 12.0839C6.57308 12.1421 6.56553 12.1512 6.43943 12.0774C5.93125 11.7805 5.41338 11.4825 4.91166 11.1941C4.71659 11.0821 4.52097 10.9694 4.32589 10.8568C4.04243 10.6935 3.75951 10.5297 3.47605 10.3659C2.72052 9.92882 1.93912 9.47669 1.16581 9.04019C1.08336 8.99384 1.05749 8.96851 1.04995 8.95828C1.05372 8.94696 1.06935 8.91462 1.1297 8.8478C1.63734 8.28681 2.11911 7.71558 2.56963 7.17885ZM2.97488 11.5331C2.97434 11.3607 2.9738 11.1877 2.97326 11.0147C3.00667 11.0303 3.03793 11.0513 3.07296 11.0745C3.09882 11.0918 3.12415 11.1079 3.15002 11.123C4.07638 11.6538 5.01567 12.1976 5.92425 12.7241L6.19908 12.883C6.69541 13.1708 6.78432 13.1557 7.14915 12.7273C7.4698 12.3501 7.79098 11.9761 8.13102 11.5805C8.20593 11.4932 8.28137 11.4054 8.35789 11.3165V16.6434L7.98067 16.4274C7.56518 16.1897 7.15993 15.958 6.75576 15.7246C6.39578 15.5172 6.03634 15.3091 5.6769 15.1006C4.85831 14.6269 4.01171 14.1365 3.17481 13.6612C3.00829 13.5669 2.96356 13.4941 2.96733 13.3233C2.97865 12.7268 2.9765 12.12 2.97488 11.5331Z" fill="#FF6600"/>
</svg>
